<svg t="1691120944140" class="icon" viewBox="0 0 1024 1024" version="1.1" xmlns="http://www.w3.org/2000/svg" p-id="1735" width="48" height="48"><path d="M333.8 195v59.5h198.1V195c0-55.4-43.6-99-99-99s-99.1 43.6-99.1 99z" fill="#1192FF" opacity=".5" p-id="1736"></path><path d="M829.1 492.2h-59.5V333.7c0-43.6-35.7-79.2-79.2-79.2H175.2c-43.6 0-79.2 35.7-79.2 79.2v150.5h59.5c59.5 0 107 47.5 107 107s-47.5 107-107 107H96v150.5c0 43.6 35.7 79.2 79.2 79.2h150.5v-59.5c0-59.5 47.5-107 107-107s107 47.5 107 107V928h150.5c43.6 0 79.2-35.7 79.2-79.2V690.4H829c55.4 0 99-43.6 99-99 0.2-55.6-43.4-99.2-98.9-99.2z" fill="#1192FF" p-id="1737"></path></svg>